# xmcd
# 
# Track frame offsets:
#     150
#     26648
#     53976
#     84287
#     104845
#     129751
#     143605
#     166166
#     192408
#     215745
#     239310
#     266124
#     286622
#     320599
# 
# Disc length: 4477
# 
# Revision: 1
# Processed by: cddbd v1.5.2PL0 Copyright (c) Steve Scherf et al.
# Submitted via: fre:ac v1.0.17
# 
DISCID=c8117b0e
DTITLE=CLAUDIA KORECK - Live
DYEAR=2011
DGENRE=
TTITLE0=ALOHA
TTITLE1=SCHUAH AUS
TTITLE2=FLIANG
TTITLE3=MENSCHSEIN
TTITLE4=BEAUTIFUL
TTITLE5=CREEPIN'IN
TTITLE6='S EWIGE LEM
TTITLE7=ERWACHSEN
TTITLE8=HUNGER
TTITLE9=I WUI DASS DU WOASST
TTITLE10=WENN I DI NED HÄTT
TTITLE11=SCHREI
TTITLE12=I MOG DI DOG
TTITLE13=SOMMER IM DEZEMBER
EXTD=
EXTT0=
EXTT1=
EXTT2=
EXTT3=
EXTT4=
EXTT5=
EXTT6=
EXTT7=
EXTT8=
EXTT9=
EXTT10=
EXTT11=
EXTT12=
EXTT13=
PLAYORDER=
